<svg width="242" height="187" viewBox="0 0 242 187" fill="none" xmlns="http://www.w3.org/2000/svg">
<g filter="url(#filter0_dii_1_11)">
<rect x="7" y="4" width="228" height="172.093" rx="15" fill="url(#paint0_linear_1_11)"/>
</g>
<path d="M171.862 75.9261V117.184C171.862 118.179 171.338 119.133 170.406 119.837C169.474 120.54 168.21 120.935 166.892 120.935C165.574 120.935 164.31 120.54 163.379 119.837C162.447 119.133 161.923 118.179 161.923 117.184V102.181C161.923 99.1971 160.352 96.3351 157.557 94.2249C154.761 92.1146 150.969 90.9291 147.015 90.9291H132.108V45.9201C132.108 43.9306 131.061 42.0226 129.197 40.6158C127.333 39.209 124.805 38.4186 122.169 38.4186H62.5385C59.9026 38.4186 57.3747 39.209 55.5109 40.6158C53.6471 42.0226 52.6 43.9306 52.6 45.9201V128.437C52.6 130.426 53.6471 132.334 55.5109 133.741C57.3747 135.148 59.9026 135.938 62.5385 135.938H122.169C124.805 135.938 127.333 135.148 129.197 133.741C131.061 132.334 132.108 130.426 132.108 128.437V98.4306H147.015C148.333 98.4306 149.597 98.8258 150.529 99.5292C151.461 100.233 151.985 101.187 151.985 102.181V117.184C151.985 120.169 153.555 123.031 156.351 125.141C159.147 127.251 162.939 128.437 166.892 128.437C170.846 128.437 174.638 127.251 177.434 125.141C180.229 123.031 181.8 120.169 181.8 117.184V68.4246C181.8 66.4351 180.753 64.5271 178.889 63.1203C177.025 61.7135 174.497 60.9231 171.862 60.9231V49.5959C171.836 48.6142 171.301 47.6793 170.371 46.9921C169.442 46.3048 168.193 45.9199 166.892 45.9201C166.2 45.9288 165.518 46.0443 164.887 46.2596C164.257 46.4749 163.691 46.7853 163.226 47.1719C162.76 47.5585 162.404 48.0129 162.18 48.5072C161.956 49.0015 161.869 49.5252 161.923 50.046V68.4246C161.923 69.9083 162.506 71.3586 163.598 72.5923C164.69 73.8259 166.242 74.7874 168.058 75.3551C169.874 75.9229 171.873 76.0715 173.8 75.782C175.728 75.4926 177.499 74.7781 178.889 73.729C180.279 72.6799 181.226 71.3433 181.609 69.8881C181.993 68.433 181.796 66.9247 181.043 65.5539C180.291 64.1832 179.017 63.0117 177.383 62.1874C175.749 61.3631 173.827 60.9231 171.862 60.9231V75.9261ZM122.169 79.6769C122.169 80.6717 121.646 81.6257 120.714 82.3291C119.782 83.0325 118.518 83.4276 117.2 83.4276H67.5077C66.1898 83.4276 64.9258 83.0325 63.9939 82.3291C63.062 81.6257 62.5385 80.6717 62.5385 79.6769V57.1724C62.5385 56.1776 63.062 55.2236 63.9939 54.5202C64.9258 53.8168 66.1898 53.4216 67.5077 53.4216H117.2C118.518 53.4216 119.782 53.8168 120.714 54.5202C121.646 55.2236 122.169 56.1776 122.169 57.1724V79.6769Z" fill="black"/>
<defs>
<filter id="filter0_dii_1_11" x="0.333333" y="0.666667" width="241.333" height="185.427" filterUnits="userSpaceOnUse" color-interpolation-filters="sRGB">
<feFlood flood-opacity="0" result="BackgroundImageFix"/>
<feColorMatrix in="SourceAlpha" type="matrix" values="0 0 0 0 0 0 0 0 0 0 0 0 0 0 0 0 0 0 127 0" result="hardAlpha"/>
<feOffset dy="3.33333"/>
<feGaussianBlur stdDeviation="3.33333"/>
<feColorMatrix type="matrix" values="0 0 0 0 0.193725 0 0 0 0 0.195294 0 0 0 0 0.198431 0 0 0 0.121 0"/>
<feBlend mode="normal" in2="BackgroundImageFix" result="effect1_dropShadow_1_11"/>
<feBlend mode="normal" in="SourceGraphic" in2="effect1_dropShadow_1_11" result="shape"/>
<feColorMatrix in="SourceAlpha" type="matrix" values="0 0 0 0 0 0 0 0 0 0 0 0 0 0 0 0 0 0 127 0" result="hardAlpha"/>
<feOffset dy="0.785185"/>
<feGaussianBlur stdDeviation="0.392593"/>
<feComposite in2="hardAlpha" operator="arithmetic" k2="-1" k3="1"/>
<feColorMatrix type="matrix" values="0 0 0 0 0.833333 0 0 0 0 0.819444 0 0 0 0 0.819444 0 0 0 1 0"/>
<feBlend mode="normal" in2="shape" result="effect2_innerShadow_1_11"/>
<feColorMatrix in="SourceAlpha" type="matrix" values="0 0 0 0 0 0 0 0 0 0 0 0 0 0 0 0 0 0 127 0" result="hardAlpha"/>
<feOffset dy="-0.785185"/>
<feGaussianBlur stdDeviation="0.392593"/>
<feComposite in2="hardAlpha" operator="arithmetic" k2="-1" k3="1"/>
<feColorMatrix type="matrix" values="0 0 0 0 0.702431 0 0 0 0 0.704398 0 0 0 0 0.708333 0 0 0 1 0"/>
<feBlend mode="normal" in2="effect2_innerShadow_1_11" result="effect3_innerShadow_1_11"/>
</filter>
<linearGradient id="paint0_linear_1_11" x1="121" y1="4" x2="121" y2="176.093" gradientUnits="userSpaceOnUse">
<stop stop-color="#E0E2E6"/>
<stop offset="1" stop-color="white"/>
</linearGradient>
</defs>
</svg>
